<?xml version="1.0" standalone="no"?><!DOCTYPE svg PUBLIC "-//W3C//DTD SVG 1.1//EN" "http://www.w3.org/Graphics/SVG/1.1/DTD/svg11.dtd"><svg t="1727083331636" class="icon" viewBox="0 0 1024 1024" version="1.1" xmlns="http://www.w3.org/2000/svg" p-id="23167" xmlns:xlink="http://www.w3.org/1999/xlink" width="200" height="200"><path d="M517.34 130.196c196.678-5.177 381.12 168.476 377.524 385.795-3.496 212.108-175.368 381.691-391.273 378.095-204.107-3.428-379.507-172.375-374.398-394.365 4.638-201.385 176.71-378.668 388.147-369.525z m19.327 369.827c0 41.887-8.606 46.557-47.733 33.044-85.38-29.548-172.106-55.665-256.277-88.239-44.067-17.042-47.8 4.001-50.623 36.976C162.64 708.836 385.268 886.222 587.29 832c131.232-35.228 243.202-153.014 254.262-288.916 13.445-165.552-93.383-319.741-274.16-358.97-25.48-5.545-35.7 4.943-35.364 30.387 0.706 49.077 4.64 268.68 4.64 285.522z" p-id="23168"></path></svg>