<?xml version="1.0" standalone="no"?><!DOCTYPE svg PUBLIC "-//W3C//DTD SVG 1.1//EN" "http://www.w3.org/Graphics/SVG/1.1/DTD/svg11.dtd"><svg t="1727003878448" class="icon" viewBox="0 0 1024 1024" version="1.1" xmlns="http://www.w3.org/2000/svg" p-id="20770" xmlns:xlink="http://www.w3.org/1999/xlink" width="200" height="200"><path d="M512 53.333333c253.184 0 458.666667 183.338667 458.666667 411.221334 0 147.114667-113.365333 263.808-259.029334 268.928l-9.984 0.170666h-85.333333c-20.266667 0-39.125333 18.816-39.125333 39.125334 0 6.570667 2.218667 12.16 10.282666 24.490666l2.176 3.285334 2.816 2.986666c12.288 14.165333 19.2 29.696 21.589334 47.786667l0.810666 7.936 0.256 8.277333c0 55.552-47.488 103.125333-103.125333 103.125334A456.96 456.96 0 0 1 53.333333 512C53.333333 257.28 257.28 53.333333 512 53.333333z m0 64A392.96 392.96 0 0 0 117.333333 512 392.96 392.96 0 0 0 512 906.666667c20.266667 0 39.125333-18.858667 39.125333-39.125334 0-10.069333-1.621333-15.701333-6.698666-21.717333l-2.816-3.072-3.925334-4.736c-17.493333-26.026667-24.490667-41.088-24.490666-65.28 0-53.376 43.776-99.285333 96.469333-102.826667l6.656-0.256h85.333333c115.114667 0 205.013333-89.941333 205.013334-205.098666 0-190.805333-175.317333-347.221333-394.666667-347.221334zM277.376 384c34.133333 0 64 29.866667 64 64 0 34.048-29.866667 64-64 64-34.176 0-64-29.952-64-64 0-34.133333 29.824-64 64-64z m469.333333 0c34.133333 0 64 29.866667 64 64 0 34.048-29.866667 64-64 64s-64-29.952-64-64c0-34.133333 29.866667-64 64-64z m-341.333333-170.666667c34.133333 0 64 29.866667 64 64s-29.866667 64-64 64c-34.176 0-64-29.866667-64-64S371.2 213.333333 405.376 213.333333z m213.333333 0c34.133333 0 64 29.866667 64 64S652.8 341.333333 618.666667 341.333333 554.666667 311.466667 554.666667 277.333333 584.533333 213.333333 618.666667 213.333333z" fill="#2C2C2C" p-id="20771"></path></svg>