<?xml version="1.0" standalone="no"?><!DOCTYPE svg PUBLIC "-//W3C//DTD SVG 1.1//EN" "http://www.w3.org/Graphics/SVG/1.1/DTD/svg11.dtd"><svg t="1727075949217" class="icon" viewBox="0 0 1024 1024" version="1.1" xmlns="http://www.w3.org/2000/svg" p-id="13055" xmlns:xlink="http://www.w3.org/1999/xlink" width="200" height="200"><path d="M459 890.6c-22.6 0-41-18.3-41-41V692.1c0-22.6 18.3-41 41-41 22.6 0 41 18.3 41 41v157.6c0 22.6-18.3 40.9-41 40.9zM567 837.4c-22.6 0-41-18.3-41-41v-51.2c0-22.6 18.3-41 41-41 22.6 0 41 18.3 41 41v51.2c0 22.7-18.3 41-41 41zM365.8 818.5c-5.5-20.5-8.5-42-8.5-64.2 0-22.7 3.1-44.7 8.8-65.5l-0.1-0.2c2.3-9.4 3.5-19.3 3.5-29.4 0-69.3-56.2-125.5-125.5-125.5s-125.5 56.2-125.5 125.5v191c0 69.3 56.2 125.5 125.5 125.5s125.5-56.2 125.5-125.5c0-10.8-1.4-21.3-3.9-31.2l0.2-0.5zM899.5 660v-0.3-0.5c0-69.3-56.2-125.5-125.5-125.5s-125.5 56.2-125.5 125.5c0 10.1 1.2 20 3.5 29.4l-0.1 0.2c5.7 20.9 8.8 42.8 8.8 65.5 0 22.2-3 43.7-8.5 64.2l0.2 0.4c-2.6 10-3.9 20.5-3.9 31.2 0 69.3 56.2 125.5 125.5 125.5s125.5-56.2 125.5-125.5V849 660z" fill="#242424" p-id="13056"></path><path d="M512.3 119.3c211.6 0 383.1 171.5 383.1 383.1 0 56.5-12.2 110.1-34.2 158.4l14.7 131.5c63.5-79.5 101.4-180.3 101.4-289.9 0-256.8-208.2-465-465-465s-465 208.2-465 465c0 108.5 37.2 208.3 99.4 287.4l-4.1-57.6 16.8-80.3c-19.5-45.9-30.3-96.4-30.3-149.5 0.1-211.6 171.6-383.1 383.2-383.1z" fill="#242424" p-id="13057"></path></svg>