<?xml version="1.0" standalone="no"?><!DOCTYPE svg PUBLIC "-//W3C//DTD SVG 1.1//EN" "http://www.w3.org/Graphics/SVG/1.1/DTD/svg11.dtd"><svg t="1727083259617" class="icon" viewBox="0 0 1024 1024" version="1.1" xmlns="http://www.w3.org/2000/svg" p-id="20282" xmlns:xlink="http://www.w3.org/1999/xlink" width="200" height="200"><path d="M511.992 473.875c-82.397 0-149.437-67.04-149.437-149.437V308.36h298.873v16.078c0 82.397-67.04 149.437-149.436 149.437zM719.25 251.663H304.718c-33.635 0-61.004-27.37-61.004-61.02 0-33.635 27.369-61.004 61.004-61.004H719.25c33.667 0 61.036 27.369 61.036 61.004 0 33.65-27.369 61.02-61.036 61.02z m-414.532-90.104c-16.023 0-29.084 13.046-29.084 29.084s13.061 29.1 29.084 29.1H719.25c16.054 0 29.115-13.062 29.115-29.1s-13.061-29.084-29.115-29.084H304.718zM719.25 894.362H304.718c-33.635 0-61.004-27.369-61.004-61.02s27.369-61.019 61.004-61.019H719.25c33.667 0 61.036 27.37 61.036 61.02s-27.369 61.02-61.036 61.02z m-414.532-90.12c-16.023 0-29.084 13.061-29.084 29.1s13.061 29.1 29.084 29.1H719.25c16.054 0 29.115-13.062 29.115-29.1s-13.061-29.1-29.115-29.1H304.718z" fill="" p-id="20283"></path><path d="M706.5 804.242h-389c-8.823 0-15.961-7.139-15.961-15.96v-88.734c0-80.176 45.792-152.278 115.338-187.549-69.546-35.288-115.338-107.39-115.338-187.565v-88.733c0-8.822 7.138-15.96 15.96-15.96h389.002c8.822 0 15.96 7.138 15.96 15.96v88.733c0 80.176-45.792 152.278-115.338 187.565 69.546 35.271 115.338 107.373 115.338 187.55v88.732c0 8.822-7.138 15.96-15.96 15.96z m-373.041-31.92H690.54V699.55c0-80.363-54.24-151.156-131.89-172.135A15.968 15.968 0 0 1 546.865 512c0-7.201 4.832-13.53 11.783-15.399 77.651-21.01 131.891-91.803 131.891-172.166v-72.772H333.46v72.772c0 80.362 54.24 151.156 131.89 172.166 6.952 1.87 11.784 8.199 11.784 15.399 0 7.216-4.832 13.53-11.783 15.415-77.651 20.979-131.891 91.772-131.891 172.135v72.772z" fill="" p-id="20284"></path><path d="M660.68 789.91H363.302c0-34.839 28.243-63.08 63.08-63.08H597.6c34.838-0.001 63.08 28.241 63.08 63.08z" fill="" p-id="20285"></path><path d="M511.985 742.785c-8.822 0-15.96-7.138-15.96-15.96V441.846c0-8.822 7.138-15.96 15.96-15.96 8.822 0 15.96 7.138 15.96 15.96v284.98c0 8.822-7.138 15.96-15.96 15.96z" fill="" p-id="20286"></path></svg>